<mxfile host="app.diagrams.net" agent="Mozilla/5.0 (Windows NT 10.0; Win64; x64) AppleWebKit/537.36 (KHTML, like Gecko) Chrome/132.0.0.0 Safari/537.36 Edg/132.0.0.0" version="26.0.7">
  <diagram name="Page-1" id="67sOJIxfJh_Tyo5UbThU">
    <mxGraphModel dx="840" dy="746" grid="1" gridSize="10" guides="1" tooltips="1" connect="1" arrows="1" fold="1" page="1" pageScale="1" pageWidth="850" pageHeight="1100" math="0" shadow="0">
      <root>
        <mxCell id="0" />
        <mxCell id="1" parent="0" />
        <mxCell id="UDImez37fTVx7visXOVI-3" value="" style="rounded=0;whiteSpace=wrap;html=1;" vertex="1" parent="1">
          <mxGeometry x="40" y="80" width="170" height="360" as="geometry" />
        </mxCell>
        <mxCell id="UDImez37fTVx7visXOVI-11" style="edgeStyle=orthogonalEdgeStyle;rounded=0;orthogonalLoop=1;jettySize=auto;html=1;" edge="1" parent="1" source="UDImez37fTVx7visXOVI-1" target="UDImez37fTVx7visXOVI-4">
          <mxGeometry relative="1" as="geometry">
            <Array as="points">
              <mxPoint x="125" y="160" />
              <mxPoint x="90" y="160" />
            </Array>
          </mxGeometry>
        </mxCell>
        <mxCell id="UDImez37fTVx7visXOVI-12" style="edgeStyle=orthogonalEdgeStyle;rounded=0;orthogonalLoop=1;jettySize=auto;html=1;" edge="1" parent="1" source="UDImez37fTVx7visXOVI-1" target="UDImez37fTVx7visXOVI-5">
          <mxGeometry relative="1" as="geometry">
            <Array as="points">
              <mxPoint x="125" y="160" />
              <mxPoint x="160" y="160" />
            </Array>
          </mxGeometry>
        </mxCell>
        <mxCell id="UDImez37fTVx7visXOVI-1" value="" style="ellipse;whiteSpace=wrap;html=1;aspect=fixed;" vertex="1" parent="1">
          <mxGeometry x="105" y="100" width="40" height="40" as="geometry" />
        </mxCell>
        <mxCell id="UDImez37fTVx7visXOVI-13" style="edgeStyle=orthogonalEdgeStyle;rounded=0;orthogonalLoop=1;jettySize=auto;html=1;entryX=0.5;entryY=0;entryDx=0;entryDy=0;" edge="1" parent="1" source="UDImez37fTVx7visXOVI-4" target="UDImez37fTVx7visXOVI-6">
          <mxGeometry relative="1" as="geometry">
            <Array as="points">
              <mxPoint x="90" y="260" />
              <mxPoint x="70" y="260" />
            </Array>
          </mxGeometry>
        </mxCell>
        <mxCell id="UDImez37fTVx7visXOVI-14" style="edgeStyle=orthogonalEdgeStyle;rounded=0;orthogonalLoop=1;jettySize=auto;html=1;" edge="1" parent="1" source="UDImez37fTVx7visXOVI-4" target="UDImez37fTVx7visXOVI-7">
          <mxGeometry relative="1" as="geometry">
            <Array as="points">
              <mxPoint x="90" y="260" />
              <mxPoint x="100" y="260" />
            </Array>
          </mxGeometry>
        </mxCell>
        <mxCell id="UDImez37fTVx7visXOVI-4" value="" style="ellipse;whiteSpace=wrap;html=1;aspect=fixed;" vertex="1" parent="1">
          <mxGeometry x="70" y="180" width="40" height="40" as="geometry" />
        </mxCell>
        <mxCell id="UDImez37fTVx7visXOVI-15" style="edgeStyle=orthogonalEdgeStyle;rounded=0;orthogonalLoop=1;jettySize=auto;html=1;entryX=0.5;entryY=0;entryDx=0;entryDy=0;" edge="1" parent="1" source="UDImez37fTVx7visXOVI-5" target="UDImez37fTVx7visXOVI-9">
          <mxGeometry relative="1" as="geometry">
            <Array as="points">
              <mxPoint x="160" y="280" />
              <mxPoint x="180" y="280" />
            </Array>
          </mxGeometry>
        </mxCell>
        <mxCell id="UDImez37fTVx7visXOVI-16" style="edgeStyle=orthogonalEdgeStyle;rounded=0;orthogonalLoop=1;jettySize=auto;html=1;" edge="1" parent="1" source="UDImez37fTVx7visXOVI-5" target="UDImez37fTVx7visXOVI-8">
          <mxGeometry relative="1" as="geometry">
            <Array as="points">
              <mxPoint x="160" y="280" />
              <mxPoint x="140" y="280" />
            </Array>
          </mxGeometry>
        </mxCell>
        <mxCell id="UDImez37fTVx7visXOVI-5" value="" style="ellipse;whiteSpace=wrap;html=1;aspect=fixed;" vertex="1" parent="1">
          <mxGeometry x="140" y="200" width="40" height="40" as="geometry" />
        </mxCell>
        <mxCell id="UDImez37fTVx7visXOVI-6" value="" style="ellipse;whiteSpace=wrap;html=1;aspect=fixed;" vertex="1" parent="1">
          <mxGeometry x="50" y="280" width="40" height="40" as="geometry" />
        </mxCell>
        <mxCell id="UDImez37fTVx7visXOVI-8" value="" style="ellipse;whiteSpace=wrap;html=1;aspect=fixed;" vertex="1" parent="1">
          <mxGeometry x="120" y="360" width="40" height="40" as="geometry" />
        </mxCell>
        <mxCell id="UDImez37fTVx7visXOVI-9" value="" style="ellipse;whiteSpace=wrap;html=1;aspect=fixed;" vertex="1" parent="1">
          <mxGeometry x="160" y="330" width="40" height="40" as="geometry" />
        </mxCell>
        <mxCell id="UDImez37fTVx7visXOVI-17" value="" style="endArrow=none;dashed=1;html=1;rounded=0;" edge="1" parent="1">
          <mxGeometry width="50" height="50" relative="1" as="geometry">
            <mxPoint x="69.5" y="360" as="sourcePoint" />
            <mxPoint x="69.5" y="320" as="targetPoint" />
          </mxGeometry>
        </mxCell>
        <mxCell id="UDImez37fTVx7visXOVI-7" value="" style="ellipse;whiteSpace=wrap;html=1;aspect=fixed;" vertex="1" parent="1">
          <mxGeometry x="80" y="320" width="40" height="40" as="geometry" />
        </mxCell>
        <mxCell id="UDImez37fTVx7visXOVI-20" value="" style="endArrow=none;dashed=1;html=1;rounded=0;" edge="1" parent="1">
          <mxGeometry width="50" height="50" relative="1" as="geometry">
            <mxPoint x="99.5" y="400" as="sourcePoint" />
            <mxPoint x="99.5" y="360" as="targetPoint" />
          </mxGeometry>
        </mxCell>
        <mxCell id="UDImez37fTVx7visXOVI-21" value="" style="endArrow=none;dashed=1;html=1;rounded=0;" edge="1" parent="1">
          <mxGeometry width="50" height="50" relative="1" as="geometry">
            <mxPoint x="139.5" y="430" as="sourcePoint" />
            <mxPoint x="139.5" y="400" as="targetPoint" />
          </mxGeometry>
        </mxCell>
        <mxCell id="UDImez37fTVx7visXOVI-22" value="" style="endArrow=none;dashed=1;html=1;rounded=0;" edge="1" parent="1">
          <mxGeometry width="50" height="50" relative="1" as="geometry">
            <mxPoint x="179.5" y="410" as="sourcePoint" />
            <mxPoint x="179.5" y="370" as="targetPoint" />
          </mxGeometry>
        </mxCell>
        <mxCell id="UDImez37fTVx7visXOVI-23" value="0" style="text;html=1;align=center;verticalAlign=middle;whiteSpace=wrap;rounded=0;" vertex="1" parent="1">
          <mxGeometry x="95" y="105" width="60" height="30" as="geometry" />
        </mxCell>
        <mxCell id="UDImez37fTVx7visXOVI-24" value="1" style="text;html=1;align=center;verticalAlign=middle;whiteSpace=wrap;rounded=0;" vertex="1" parent="1">
          <mxGeometry x="60" y="185" width="60" height="30" as="geometry" />
        </mxCell>
        <mxCell id="UDImez37fTVx7visXOVI-25" value="2" style="text;html=1;align=center;verticalAlign=middle;whiteSpace=wrap;rounded=0;" vertex="1" parent="1">
          <mxGeometry x="130" y="205" width="60" height="30" as="geometry" />
        </mxCell>
        <mxCell id="UDImez37fTVx7visXOVI-26" value="3" style="text;html=1;align=center;verticalAlign=middle;whiteSpace=wrap;rounded=0;" vertex="1" parent="1">
          <mxGeometry x="40" y="285" width="60" height="30" as="geometry" />
        </mxCell>
        <mxCell id="UDImez37fTVx7visXOVI-27" value="4" style="text;html=1;align=center;verticalAlign=middle;whiteSpace=wrap;rounded=0;" vertex="1" parent="1">
          <mxGeometry x="70" y="325" width="60" height="30" as="geometry" />
        </mxCell>
        <mxCell id="UDImez37fTVx7visXOVI-28" value="5" style="text;html=1;align=center;verticalAlign=middle;whiteSpace=wrap;rounded=0;" vertex="1" parent="1">
          <mxGeometry x="150" y="335" width="60" height="30" as="geometry" />
        </mxCell>
        <mxCell id="UDImez37fTVx7visXOVI-29" value="6" style="text;html=1;align=center;verticalAlign=middle;whiteSpace=wrap;rounded=0;" vertex="1" parent="1">
          <mxGeometry x="110" y="365" width="60" height="30" as="geometry" />
        </mxCell>
        <mxCell id="UDImez37fTVx7visXOVI-30" value="" style="rounded=0;whiteSpace=wrap;html=1;" vertex="1" parent="1">
          <mxGeometry x="280" y="80" width="60" height="360" as="geometry" />
        </mxCell>
        <mxCell id="UDImez37fTVx7visXOVI-35" value="0" style="whiteSpace=wrap;html=1;aspect=fixed;" vertex="1" parent="1">
          <mxGeometry x="280" y="80" width="60" height="60" as="geometry" />
        </mxCell>
        <mxCell id="UDImez37fTVx7visXOVI-36" value="1" style="whiteSpace=wrap;html=1;aspect=fixed;" vertex="1" parent="1">
          <mxGeometry x="280" y="140" width="60" height="60" as="geometry" />
        </mxCell>
        <mxCell id="UDImez37fTVx7visXOVI-37" value="2" style="whiteSpace=wrap;html=1;aspect=fixed;" vertex="1" parent="1">
          <mxGeometry x="280" y="200" width="60" height="60" as="geometry" />
        </mxCell>
        <mxCell id="UDImez37fTVx7visXOVI-38" value="3" style="whiteSpace=wrap;html=1;aspect=fixed;" vertex="1" parent="1">
          <mxGeometry x="280" y="260" width="60" height="60" as="geometry" />
        </mxCell>
        <mxCell id="UDImez37fTVx7visXOVI-39" value="&lt;div&gt;4&lt;/div&gt;" style="whiteSpace=wrap;html=1;aspect=fixed;" vertex="1" parent="1">
          <mxGeometry x="280" y="320" width="60" height="60" as="geometry" />
        </mxCell>
        <mxCell id="UDImez37fTVx7visXOVI-43" value="" style="endArrow=none;dashed=1;html=1;dashPattern=1 3;strokeWidth=2;rounded=0;" edge="1" parent="1">
          <mxGeometry width="50" height="50" relative="1" as="geometry">
            <mxPoint x="309.5" y="420" as="sourcePoint" />
            <mxPoint x="309.5" y="400" as="targetPoint" />
          </mxGeometry>
        </mxCell>
        <mxCell id="UDImez37fTVx7visXOVI-44" value="" style="shape=flexArrow;endArrow=classic;html=1;rounded=0;" edge="1" parent="1">
          <mxGeometry width="50" height="50" relative="1" as="geometry">
            <mxPoint x="240" y="440" as="sourcePoint" />
            <mxPoint x="240" y="80" as="targetPoint" />
          </mxGeometry>
        </mxCell>
        <mxCell id="UDImez37fTVx7visXOVI-45" value="Small Values Rise" style="text;html=1;align=center;verticalAlign=middle;whiteSpace=wrap;rounded=0;rotation=-90;fontStyle=1;fontSize=14;" vertex="1" parent="1">
          <mxGeometry x="185" y="165" width="140" height="30" as="geometry" />
        </mxCell>
        <mxCell id="UDImez37fTVx7visXOVI-46" value="head" style="text;html=1;align=center;verticalAlign=middle;whiteSpace=wrap;rounded=0;fontStyle=1" vertex="1" parent="1">
          <mxGeometry x="145" y="105" width="60" height="30" as="geometry" />
        </mxCell>
        <mxCell id="UDImez37fTVx7visXOVI-47" value="Abstract Binary Heap" style="text;html=1;align=center;verticalAlign=middle;whiteSpace=wrap;rounded=0;fontStyle=1;fontSize=14;" vertex="1" parent="1">
          <mxGeometry x="40" y="40" width="170" height="30" as="geometry" />
        </mxCell>
        <mxCell id="UDImez37fTVx7visXOVI-48" value="Binary Heap in Memory" style="text;html=1;align=center;verticalAlign=middle;whiteSpace=wrap;rounded=0;fontStyle=1;fontSize=14;rotation=-90;" vertex="1" parent="1">
          <mxGeometry x="270" y="150" width="170" height="30" as="geometry" />
        </mxCell>
      </root>
    </mxGraphModel>
  </diagram>
</mxfile>
